<svg width="40" height="41" viewBox="0 0 40 41" fill="none" xmlns="http://www.w3.org/2000/svg">
<rect y="0.240189" width="40" height="40" rx="20" fill="url(#paint0_linear_462_491)" fill-opacity="0.15"/>
<g clip-path="url(#clip0_462_491)">
<path d="M18.2282 19.6401C18.6432 19.4314 18.957 19.1988 19.172 18.9476C19.5545 18.495 19.7433 17.895 19.7433 17.1512C19.7433 16.4274 19.5545 15.8086 19.177 15.2898C18.547 14.4447 17.4806 14.0122 15.973 13.9897H10V26.1819H15.5692C16.1968 26.1819 16.7781 26.1282 17.3156 26.0182C17.8531 25.9069 18.3182 25.7031 18.712 25.4056C19.062 25.1468 19.3545 24.8256 19.587 24.4468C19.9546 23.8742 20.1383 23.2254 20.1383 22.5029C20.1383 21.8028 19.9771 21.2065 19.657 20.7165C19.3333 20.2264 18.8582 19.8677 18.2282 19.6401ZM12.464 16.1073H15.1542C15.7455 16.1073 16.233 16.1711 16.6155 16.2974C17.0581 16.4811 17.2793 16.8549 17.2793 17.425C17.2793 17.9362 17.1106 18.2938 16.7768 18.495C16.4405 18.6963 16.0042 18.7976 15.4692 18.7976H12.464V16.1073ZM16.7181 23.8517C16.4205 23.9955 16.0017 24.0667 15.4654 24.0667H12.464V20.8152H15.5067C16.0367 20.819 16.4493 20.889 16.7443 21.0202C17.2693 21.2578 17.5306 21.6928 17.5306 22.3291C17.5306 23.0792 17.2606 23.5842 16.7181 23.8517Z" fill="white"/>
<path d="M28.0779 14.5585H22.7812V16.0761H28.0779V14.5585Z" fill="white"/>
<path d="M29.9181 20.5477C29.8081 19.8414 29.5656 19.2201 29.188 18.6838C28.7742 18.0763 28.2492 17.6312 27.6104 17.3499C26.9741 17.0674 26.2578 16.9262 25.4602 16.9274C24.1214 16.9274 23.0338 17.3462 22.1924 18.1775C21.3536 19.0113 20.9336 20.2102 20.9336 21.7728C20.9336 23.4392 21.3974 24.643 22.33 25.3819C23.2588 26.1219 24.3314 26.4907 25.549 26.4907C27.0228 26.4907 28.1692 26.0519 28.988 25.1768C29.5118 24.6243 29.8081 24.0805 29.8731 23.5467H27.4329C27.2916 23.8105 27.1279 24.0167 26.9403 24.1668C26.6003 24.4418 26.1578 24.5793 25.6152 24.5793C25.0989 24.5793 24.6614 24.4655 24.2964 24.2393C23.6938 23.8767 23.3788 23.2417 23.3388 22.3379H29.9981C30.0081 21.559 29.9831 20.9602 29.9181 20.5477ZM23.3988 20.7815C23.4863 20.1952 23.6988 19.7301 24.0363 19.3864C24.3739 19.0438 24.8514 18.8713 25.4627 18.8701C26.0265 18.8701 26.4978 19.0313 26.8816 19.3551C27.2604 19.6814 27.4741 20.1552 27.5179 20.7815H23.3988Z" fill="white"/>
</g>
<defs>
<linearGradient id="paint0_linear_462_491" x1="0" y1="0.240189" x2="40" y2="0.240189" gradientUnits="userSpaceOnUse">
<stop stop-color="#0B45B3"/>
<stop offset="1" stop-color="#288BF0"/>
</linearGradient>
<clipPath id="clip0_462_491">
<rect width="20" height="20" fill="white" transform="translate(10 10.2402)"/>
</clipPath>
</defs>
</svg>
