<svg width="32" height="32" viewBox="0 0 32 32" fill="none" xmlns="http://www.w3.org/2000/svg">
<g id="Frame">
<g id="Group">
<path id="Vector" fill-rule="evenodd" clip-rule="evenodd" d="M19.2666 4.2016H21.4499V6.15324H19.2666V4.2016Z" fill="#CCCCCC"/>
<path id="Vector_2" fill-rule="evenodd" clip-rule="evenodd" d="M20.3582 6.01646C26.3628 6.01646 31.2306 10.8924 31.2306 16.9068C31.2306 22.922 26.3628 27.7984 20.3582 27.7984C17.3931 27.7984 15.4294 26.8155 11.405 25.447L12.5254 24.3188C13.0286 23.8109 12.5352 22.8856 11.7922 23.1725C8.41286 24.4724 6.4432 23.0843 5.48266 19.9487C6.9362 20.8724 8.94349 20.2356 9.57248 19.605C10.5471 18.6296 10.1666 17.5013 7.97277 18.2264C5.15935 19.154 2.19349 17.5303 0.768555 13.5146C5.07313 15.6771 5.39018 11.2267 9.93694 12.4126C9.55014 10.8524 8.50143 10.3379 6.09951 10.3994C8.48145 7.3975 11.9458 8.95176 15.5994 7.11494C17.0809 6.38989 18.7089 6.01411 20.3582 6.01646Z" fill="#FD6B65"/>
<path id="Vector_3" fill-rule="evenodd" clip-rule="evenodd" d="M28.1549 16.9065C28.1549 21.2197 24.6654 24.7158 20.3585 24.7158C19.3342 24.7159 18.32 24.5139 17.374 24.1213C16.4279 23.7288 15.5686 23.1535 14.8453 22.4283C13.3828 20.9625 12.5615 18.9764 12.5615 16.9059C12.5615 14.8353 13.3828 12.8493 14.8453 11.3835C15.5689 10.6586 16.4282 10.0835 17.3742 9.69108C18.3202 9.29864 19.3343 9.09655 20.3585 9.09637C24.6654 9.09637 28.1549 12.594 28.1549 16.9065Z" fill="#F2F2F2"/>
<g id="Group_2">
<path id="Vector_4" d="M20.2429 10.196C20.1344 10.1982 20.0312 10.2431 19.9557 10.321C19.8802 10.3988 19.8385 10.5034 19.8396 10.6118V11.2016C19.8396 11.7464 20.6587 11.7464 20.6587 11.2016V10.6118C20.6597 10.5569 20.6496 10.5024 20.6291 10.4515C20.6085 10.4006 20.578 10.3544 20.5391 10.3156C20.5003 10.2767 20.4541 10.2462 20.4032 10.2256C20.3523 10.2051 20.2978 10.195 20.2429 10.196ZM20.2429 22.1986C20.1891 22.1994 20.136 22.2107 20.0866 22.2321C20.0372 22.2534 19.9925 22.2842 19.955 22.3229C19.9175 22.3615 19.8881 22.4071 19.8683 22.4571C19.8485 22.5072 19.8387 22.5606 19.8396 22.6144V23.2022C19.8396 23.7489 20.6587 23.7489 20.6587 23.2022V22.6144C20.6626 22.3832 20.4745 22.1943 20.2429 22.1986ZM25.9465 16.4973C25.4018 16.4973 25.4018 17.3168 25.9465 17.3168H26.5344C27.0787 17.3168 27.0787 16.4973 26.5344 16.4973H25.9465ZM13.962 16.4973C13.4176 16.4973 13.4176 17.3168 13.962 17.3168H14.5518C15.0965 17.3168 15.0965 16.4973 14.5518 16.4973H13.962ZM24.2731 20.5291C23.9047 20.5291 23.7245 20.9759 23.9882 21.2314L24.4021 21.6476C24.4396 21.6878 24.4849 21.7201 24.5351 21.7425C24.5854 21.7649 24.6397 21.7769 24.6947 21.7779C24.7497 21.7789 24.8044 21.7688 24.8555 21.7483C24.9065 21.7277 24.9529 21.697 24.9919 21.6582C25.0307 21.6193 25.0612 21.573 25.0816 21.522C25.1021 21.4711 25.112 21.4165 25.1109 21.3616C25.1097 21.3067 25.0974 21.2526 25.0748 21.2025C25.0522 21.1525 25.0197 21.1075 24.9793 21.0703L24.5655 20.6545C24.5277 20.615 24.4824 20.5835 24.4321 20.5619C24.3819 20.5404 24.3278 20.5292 24.2731 20.5291ZM15.7992 12.043C15.432 12.043 15.2525 12.4898 15.5147 12.7457L15.9305 13.1595C16.0876 13.3292 16.3561 13.3359 16.5203 13.1713C16.559 13.1322 16.5894 13.0857 16.6098 13.0346C16.6302 12.9834 16.6401 12.9287 16.6389 12.8737C16.6377 12.8187 16.6255 12.7645 16.603 12.7143C16.5804 12.6641 16.548 12.6189 16.5077 12.5815L16.0939 12.168C16.0556 12.1285 16.0098 12.0971 15.9592 12.0756C15.9086 12.0542 15.8542 12.0431 15.7992 12.043ZM24.685 12.043C24.632 12.0442 24.5798 12.0559 24.5313 12.0774C24.4828 12.0988 24.439 12.1296 24.4025 12.168L23.9886 12.5815C23.9483 12.6189 23.9159 12.6641 23.8934 12.7143C23.8708 12.7645 23.8586 12.8187 23.8574 12.8737C23.8563 12.9287 23.8662 12.9834 23.8866 13.0346C23.9069 13.0857 23.9374 13.1322 23.9761 13.1713C24.0151 13.2101 24.0615 13.2407 24.1126 13.2612C24.1637 13.2817 24.2184 13.2917 24.2735 13.2906C24.3285 13.2895 24.3828 13.2774 24.433 13.2548C24.4832 13.2323 24.5284 13.1999 24.5659 13.1595L24.9797 12.7457C25.2482 12.4855 25.0577 12.0309 24.685 12.043ZM16.2126 20.5291C16.1064 20.5334 16.0034 20.5762 15.9301 20.6545L15.5143 21.0703C15.474 21.1077 15.4417 21.1528 15.4193 21.2029C15.3969 21.253 15.3849 21.3071 15.3839 21.362C15.3829 21.4169 15.393 21.4714 15.4136 21.5223C15.4342 21.5732 15.4648 21.6194 15.5037 21.6582C15.5426 21.6971 15.589 21.7278 15.6401 21.7484C15.6911 21.769 15.7458 21.7791 15.8008 21.7781C15.8559 21.7771 15.9102 21.7651 15.9604 21.7426C16.0107 21.7202 16.056 21.6879 16.0935 21.6476L16.5073 21.2314C16.7758 20.972 16.5857 20.5193 16.2126 20.5291Z" fill="#808080"/>
<path id="Vector_5" fill-rule="evenodd" clip-rule="evenodd" d="M20.3599 16.2943C20.702 16.2943 20.9724 16.5632 20.9724 16.9068C20.9724 17.2513 20.7024 17.5194 20.3599 17.5194C20.2792 17.5202 20.1992 17.5049 20.1246 17.4744C20.0499 17.4438 19.9821 17.3988 19.925 17.3417C19.868 17.2847 19.8229 17.2168 19.7924 17.1422C19.7619 17.0675 19.7466 16.9875 19.7474 16.9068C19.7474 16.5628 20.0182 16.2943 20.3599 16.2943ZM23.1224 13.602C23.0167 13.6041 22.916 13.6474 22.8418 13.7227L20.956 15.6132C20.7699 15.524 20.5663 15.4771 20.3599 15.476C19.5757 15.476 18.9326 16.1231 18.9326 16.9068C18.9326 17.691 19.5757 18.3388 20.3599 18.3388C21.1441 18.3388 21.7876 17.691 21.7876 16.9068C21.7876 16.6306 21.7053 16.375 21.5685 16.1556L23.4194 14.3003C23.6816 14.0401 23.4931 13.5934 23.1224 13.602Z" fill="#808080"/>
</g>
</g>
</g>
</svg>
