<svg width="40" height="40" viewBox="0 0 40 40" fill="none" xmlns="http://www.w3.org/2000/svg">
<g id="Frame">
<g id="Group">
<path id="Vector" d="M5.49797 14.6521C5.49825 14.3292 5.59052 14.013 5.76397 13.7406C5.93742 13.4682 6.18489 13.2508 6.47739 13.1139C6.76989 12.977 7.09534 12.9263 7.41564 12.9676C7.73593 13.009 8.03782 13.1407 8.28597 13.3474L21.098 24.0234C21.2735 24.165 21.4191 24.3401 21.5263 24.5386C21.6334 24.737 21.7001 24.9548 21.7222 25.1793C21.7444 25.4037 21.7217 25.6303 21.6554 25.8459C21.5892 26.0615 21.4807 26.2617 21.3362 26.435C21.1918 26.6082 21.0144 26.751 20.8142 26.8549C20.6141 26.9589 20.3953 27.022 20.1705 27.0406C19.9457 27.0592 19.7195 27.0329 19.505 26.9631C19.2905 26.8934 19.0921 26.7817 18.9212 26.6346L6.10912 15.9586C5.91757 15.7991 5.76351 15.5993 5.65788 15.3735C5.55225 15.1477 5.49766 14.9014 5.49797 14.6521Z" fill="url(#paint0_linear_721_374)"/>
<path id="Vector_2" d="M18.3104 25.3298C18.3099 25.0804 18.3646 24.834 18.4704 24.6082C18.5761 24.3823 18.7305 24.1827 18.9224 24.0234L31.7344 13.3474C32.0816 13.0672 32.5251 12.9348 32.9691 12.9786C33.4131 13.0225 33.822 13.2391 34.1077 13.5818C34.3934 13.9245 34.5329 14.3658 34.4962 14.8104C34.4594 15.2551 34.2493 15.6674 33.9113 15.9586L21.0984 26.6346C20.8502 26.8413 20.5483 26.973 20.228 27.0143C19.9078 27.0557 19.5823 27.0049 19.2898 26.8681C18.9973 26.7312 18.7498 26.5138 18.5764 26.2414C18.4029 25.969 18.3107 25.6528 18.3104 25.3298ZM5.49834 2.99013C5.49862 2.66718 5.59089 2.35099 5.76435 2.07858C5.9378 1.80616 6.18526 1.58878 6.47776 1.45189C6.77027 1.315 7.09572 1.26427 7.41601 1.30562C7.7363 1.34697 8.03819 1.4787 8.28634 1.68539L21.0984 12.3614C21.2739 12.503 21.4195 12.6781 21.5267 12.8766C21.6338 13.075 21.7004 13.2928 21.7226 13.5173C21.7448 13.7417 21.7221 13.9683 21.6558 14.1839C21.5895 14.3995 21.481 14.5997 21.3366 14.773C21.1922 14.9462 21.0147 15.089 20.8146 15.1929C20.6145 15.2969 20.3956 15.36 20.1709 15.3786C19.9461 15.3972 19.7199 15.3709 19.5054 15.3011C19.2909 15.2314 19.0924 15.1197 18.9215 14.9726L6.10949 4.29658C5.9179 4.13709 5.76381 3.93734 5.65818 3.71154C5.55255 3.48573 5.49797 3.23942 5.49834 2.99013Z" fill="url(#paint1_linear_721_374)"/>
<path id="Vector_3" d="M18.3104 13.6687C18.3099 13.4193 18.3646 13.1729 18.4704 12.947C18.5761 12.7212 18.7305 12.5215 18.9224 12.3622L31.7344 1.68539C32.0816 1.40522 32.5251 1.27278 32.9691 1.31664C33.4131 1.3605 33.822 1.57715 34.1077 1.91984C34.3934 2.26253 34.5329 2.7038 34.4962 3.14844C34.4594 3.59308 34.2493 4.00545 33.9113 4.29659L21.0984 14.9734C20.8502 15.1801 20.5483 15.3118 20.228 15.3532C19.9078 15.3945 19.5823 15.3438 19.2898 15.2069C18.9973 15.07 18.7498 14.8527 18.5764 14.5802C18.4029 14.3078 18.3107 13.9916 18.3104 13.6687ZM5.49834 26.3133C5.49862 25.9903 5.59089 25.6741 5.76434 25.4017C5.9378 25.1293 6.18526 24.9119 6.47776 24.775C6.77027 24.6381 7.09572 24.5874 7.41601 24.6287C7.7363 24.6701 8.03819 24.8018 8.28634 25.0085L21.0984 35.6854C21.2739 35.827 21.4195 36.0021 21.5267 36.2006C21.6338 36.399 21.7004 36.6168 21.7226 36.8412C21.7448 37.0657 21.7221 37.2923 21.6558 37.5079C21.5895 37.7235 21.481 37.9237 21.3366 38.0969C21.1922 38.2702 21.0147 38.4129 20.8146 38.5169C20.6145 38.6209 20.3956 38.684 20.1709 38.7026C19.9461 38.7212 19.7199 38.6948 19.5054 38.6251C19.2909 38.5554 19.0924 38.4437 18.9215 38.2966L6.10949 27.6206C5.91788 27.4609 5.76378 27.261 5.65816 27.0351C5.55253 26.8091 5.49796 26.5627 5.49834 26.3133Z" fill="url(#paint2_linear_721_374)"/>
<path id="Vector_4" d="M18.3104 36.9918C18.3099 36.7424 18.3646 36.496 18.4704 36.2702C18.5761 36.0443 18.7305 35.8447 18.9224 35.6854L31.7344 25.0085C32.0816 24.7284 32.5251 24.5959 32.9691 24.6398C33.4131 24.6836 33.822 24.9003 34.1077 25.243C34.3934 25.5857 34.5329 26.0269 34.4962 26.4716C34.4594 26.9162 34.2493 27.3286 33.9113 27.6197L21.0984 38.2966C20.8502 38.5032 20.5483 38.635 20.228 38.6763C19.9078 38.7177 19.5823 38.6669 19.2898 38.5301C18.9973 38.3932 18.7498 38.1758 18.5764 37.9034C18.4029 37.631 18.3107 37.3148 18.3104 36.9918Z" fill="url(#paint3_linear_721_374)"/>
</g>
</g>
<defs>
<linearGradient id="paint0_linear_721_374" x1="21.7305" y1="12.9536" x2="21.7305" y2="27.0464" gradientUnits="userSpaceOnUse">
<stop stop-color="#0B45B3"/>
<stop offset="1" stop-color="#288BF0"/>
</linearGradient>
<linearGradient id="paint1_linear_721_374" x1="34.502" y1="1.29162" x2="34.502" y2="27.0283" gradientUnits="userSpaceOnUse">
<stop stop-color="#0B45B3"/>
<stop offset="1" stop-color="#288BF0"/>
</linearGradient>
<linearGradient id="paint2_linear_721_374" x1="34.502" y1="1.3084" x2="34.502" y2="38.7084" gradientUnits="userSpaceOnUse">
<stop stop-color="#0B45B3"/>
<stop offset="1" stop-color="#288BF0"/>
</linearGradient>
<linearGradient id="paint3_linear_721_374" x1="34.502" y1="24.6315" x2="34.502" y2="38.6903" gradientUnits="userSpaceOnUse">
<stop stop-color="#0B45B3"/>
<stop offset="1" stop-color="#288BF0"/>
</linearGradient>
</defs>
</svg>
