<svg width="240" height="240" viewBox="0 0 240 240" fill="none" xmlns="http://www.w3.org/2000/svg">
<g id="Frame" clip-path="url(#clip0_721_529)">
<g id="Group">
<path id="Vector" d="M119.999 144L40.7949 108.977V202.191C40.7949 204.157 41.9513 205.934 43.7485 206.728L117.991 239.573C118.624 239.853 119.999 239.998 119.999 239.998V230.5V225.5V144Z" fill="#FCB44D"/>
<path id="Vector_2" d="M199.208 108.977V167.693L152.638 188.293C150.743 189.135 148.691 189.57 146.617 189.569C144.176 189.57 141.773 188.971 139.618 187.824C137.463 186.677 135.624 185.017 134.262 182.991L120.001 161.801L105.741 182.991C104.381 185.018 102.541 186.677 100.385 187.821C98.2308 188.97 95.8269 189.57 93.3859 189.568C91.2962 189.568 89.2707 189.136 87.3601 188.292L40.7949 167.692V108.977H65.3307L120.001 133.165L174.672 108.977H199.208Z" fill="#FCA62F"/>
<path id="Vector_3" d="M199.207 108.977V202.191C199.207 204.157 198.045 205.934 196.248 206.728L122.005 239.573C121.374 239.855 120.691 240 120 240L120 144.5L199.207 108.977Z" fill="#FB8627"/>
<path id="Vector_4" d="M174.671 108.977L120 133.165V161.801L134.261 182.991C135.623 185.017 137.462 186.677 139.616 187.824C141.771 188.971 144.175 189.57 146.616 189.569C148.69 189.57 150.741 189.135 152.637 188.293L178.285 176.947C182.072 175.272 186.33 178.045 186.33 182.186V211.116L196.248 206.728C197.128 206.34 197.876 205.704 198.401 204.899C198.926 204.093 199.206 203.153 199.207 202.191V108.977H174.671Z" fill="#FB7722"/>
<path id="Vector_5" d="M120 73.9382L40.793 108.979L120 144.02L199.206 108.979L120 73.9382Z" fill="#5B5555"/>
<path id="Vector_6" d="M199.207 108.979L120 144.02L107.527 138.502L169.24 111.198C171.167 110.346 171.167 107.612 169.24 106.76L107.527 79.4563L120 73.9377L199.207 108.979Z" fill="#433F43"/>
<path id="Vector_7" d="M144.951 98.5734L139.389 135.929L120 144.505L100.611 135.929L95.0488 98.5734H144.951Z" fill="#F3EAE6"/>
<path id="Vector_8" d="M144.946 98.5682L142.806 112.949L139.379 135.934L125.523 142.059L129.275 116.894C126.208 117.388 123.106 117.636 120 117.637C111.909 117.637 104.197 115.967 97.1938 112.944L95.0488 98.5682H144.946Z" fill="#E0D3CE"/>
<path id="Vector_9" d="M119.999 106.437C146.013 106.437 167.1 85.3489 167.1 59.3358C167.1 33.3227 146.013 12.2349 119.999 12.2349C93.9862 12.2349 72.8984 33.3227 72.8984 59.3358C72.8984 85.3489 93.9862 106.437 119.999 106.437Z" fill="#FCC16D"/>
<path id="Vector_10" d="M167.099 59.3377C167.099 85.3463 146.015 106.435 120.002 106.435C117.451 106.435 114.942 106.231 112.504 105.84C134.949 102.244 152.098 82.7897 152.098 59.3377C152.098 35.88 134.949 16.426 112.504 12.8297C114.983 12.4328 117.491 12.2339 120.002 12.2349C146.015 12.2349 167.099 33.3239 167.099 59.3377Z" fill="#FCB44D"/>
<path id="Vector_11" d="M142.165 52.7723C141.2 52.7727 140.274 53.1563 139.592 53.8388C138.909 54.5214 138.526 55.447 138.525 56.4122V58.8877C138.525 59.4425 138.305 59.9746 137.913 60.3669C137.52 60.7593 136.988 60.9797 136.433 60.9797H103.567C103.012 60.9796 102.48 60.7591 102.088 60.3668C101.695 59.9745 101.475 59.4424 101.475 58.8877V56.4122C101.475 55.447 101.091 54.5214 100.409 53.8388C99.726 53.1563 98.8004 52.7727 97.8352 52.7723C97.3571 52.7721 96.8837 52.8661 96.442 53.0489C96.0002 53.2317 95.5989 53.4998 95.2609 53.8379C94.9228 54.1759 94.6547 54.5773 94.4719 55.019C94.289 55.4607 94.1951 55.9341 94.1953 56.4122V58.8877C94.1953 64.0566 98.3981 68.2594 103.567 68.2594H105.804V104.257C108.182 105.007 110.617 105.566 113.085 105.926V83.8969H126.916V105.926C129.384 105.566 131.818 105.007 134.197 104.257V68.2594H136.434C141.603 68.2594 145.806 64.0561 145.806 58.8877V56.4122C145.806 55.9341 145.712 55.4607 145.529 55.019C145.346 54.5773 145.078 54.176 144.74 53.838C144.402 53.5 144 53.2319 143.559 53.049C143.117 52.8662 142.643 52.7722 142.165 52.7723ZM126.916 76.6167H113.084V68.2594H126.916V76.6167Z" fill="#FB8627"/>
<path id="Vector_12" d="M112.502 105.839C112.696 105.868 112.89 105.902 113.084 105.926V105.737C112.891 105.776 112.696 105.809 112.502 105.839ZM126.916 101.029V105.926C129.384 105.566 131.819 105.007 134.197 104.257V96.292C131.921 98.0922 129.484 99.678 126.916 101.029Z" fill="#FB7722"/>
<path id="Vector_13" d="M141.151 119.88H98.8488C98.3708 119.88 97.8975 119.974 97.4559 120.157C97.0143 120.34 96.6131 120.608 96.2751 120.946C95.9371 121.284 95.669 121.685 95.486 122.126C95.3031 122.568 95.209 123.041 95.209 123.519C95.209 123.997 95.3031 124.471 95.486 124.912C95.669 125.354 95.9371 125.755 96.2751 126.093C96.6131 126.431 97.0143 126.699 97.4559 126.882C97.8975 127.065 98.3708 127.159 98.8488 127.159H141.151C143.161 127.159 144.791 125.53 144.791 123.519C144.791 121.509 143.161 119.88 141.151 119.88Z" fill="#CDBFBB"/>
<path id="Vector_14" d="M144.793 123.52C144.793 125.531 143.161 127.158 141.15 127.158H132.244C134.25 127.158 135.882 125.531 135.882 123.52C135.882 121.509 134.25 119.878 132.244 119.878H141.15C143.161 119.878 144.793 121.509 144.793 123.52Z" fill="#B9ACAC"/>
<g id="Group_2">
<path id="Vector_15" d="M79.1779 10.9542C78.4906 10.2866 77.5678 9.91689 76.6096 9.9253C75.6515 9.93371 74.7353 10.3196 74.0598 10.9991C73.3843 11.6787 73.004 12.5972 73.0013 13.5554C72.9986 14.5136 73.3739 15.4342 74.0456 16.1175L78.074 20.122C78.7552 20.801 79.6782 21.1817 80.64 21.1804C81.3608 21.1804 82.0654 20.9663 82.6644 20.5653C83.2635 20.1644 83.73 19.5946 84.0049 18.9283C84.2798 18.2619 84.3506 17.5289 84.2084 16.8222C84.0663 16.1155 83.7175 15.467 83.2064 14.9587L79.1779 10.9542ZM94.5248 2.75668C94.0354 0.806682 92.0568 -0.38113 90.1083 0.111526C89.6446 0.227793 89.2084 0.434249 88.8245 0.719105C88.4406 1.00396 88.1167 1.36164 87.871 1.77172C87.6254 2.18179 87.4629 2.63623 87.393 3.10909C87.323 3.58195 87.3468 4.06397 87.4631 4.52762L88.8604 10.0987C89.0578 10.8852 89.512 11.5834 90.151 12.0826C90.79 12.5818 91.5774 12.8534 92.3883 12.8545C92.6812 12.8545 92.9793 12.8189 93.2765 12.7439C93.7402 12.6276 94.1764 12.4211 94.5603 12.1363C94.9441 11.8514 95.2681 11.4938 95.5138 11.0837C95.7594 10.6736 95.9218 10.2192 95.9918 9.7463C96.0618 9.27344 96.038 8.79143 95.9217 8.32778L94.5248 2.75668ZM73.2436 25.8L67.6631 24.435C67.1988 24.3211 66.7165 24.2999 66.244 24.3725C65.7715 24.4452 65.3179 24.6102 64.9092 24.8583C64.5005 25.1064 64.1447 25.4326 63.8621 25.8182C63.5796 26.2039 63.3758 26.6414 63.2625 27.1059C63.1489 27.5702 63.1279 28.0524 63.2006 28.5248C63.2734 28.9973 63.4385 29.4508 63.6865 29.8594C63.9345 30.2681 64.2606 30.6238 64.6461 30.9065C65.0317 31.1891 65.4691 31.393 65.9334 31.5065L71.5139 32.8715C72.4516 33.1003 73.4418 32.9475 74.2669 32.4467C75.092 31.9459 75.6846 31.138 75.9145 30.2006C76.1437 29.2629 75.991 28.2725 75.4902 27.4473C74.9893 26.622 74.1812 26.0295 73.2436 25.8ZM165.97 10.9697C165.289 10.285 164.364 9.89877 163.399 9.89587C162.434 9.89297 161.507 10.2737 160.822 10.9542L156.794 14.9587C156.282 15.4669 155.933 16.1155 155.791 16.8222C155.649 17.529 155.719 18.2621 155.994 18.9285C156.269 19.595 156.736 20.1648 157.335 20.5657C157.934 20.9666 158.639 21.1806 159.36 21.1804C160.288 21.1804 161.216 20.8279 161.926 20.122L165.954 16.1175C166.639 15.4368 167.025 14.5121 167.028 13.5468C167.031 12.5814 166.65 11.6544 165.97 10.9697ZM149.892 0.111057C147.942 -0.379724 145.964 0.806213 145.475 2.75621L144.078 8.32731C143.843 9.26368 143.99 10.255 144.486 11.0831C144.982 11.9113 145.787 12.5085 146.723 12.7434C147.02 12.8184 147.318 12.854 147.611 12.854C148.422 12.853 149.21 12.5814 149.849 12.0822C150.488 11.583 150.942 10.8848 151.139 10.0982L152.536 4.52715C152.653 4.06353 152.677 3.58153 152.607 3.10867C152.537 2.63582 152.374 2.18137 152.129 1.77128C151.883 1.3612 151.559 1.00351 151.175 0.718642C150.792 0.433778 150.355 0.227319 149.892 0.111057ZM176.738 27.1059C176.624 26.6415 176.421 26.2041 176.138 25.8185C175.855 25.4329 175.5 25.1068 175.091 24.8588C174.682 24.6108 174.229 24.4457 173.756 24.373C173.284 24.3002 172.802 24.3213 172.337 24.435L166.757 25.8C166.293 25.9135 165.855 26.1175 165.47 26.4001C165.084 26.6827 164.758 27.0385 164.51 27.4471C164.262 27.8557 164.097 28.3092 164.024 28.7817C163.951 29.2541 163.972 29.7363 164.086 30.2006C164.199 30.6649 164.403 31.1023 164.686 31.4878C164.969 31.8734 165.324 32.1994 165.733 32.4475C166.142 32.6955 166.595 32.8606 167.068 32.9333C167.54 33.0061 168.022 32.9851 168.487 32.8715L174.067 31.5065C175.005 31.2771 175.813 30.6846 176.314 29.8593C176.815 29.0341 176.967 28.0436 176.738 27.1059Z" fill="#FEE7C9"/>
</g>
<path id="Vector_16" d="M199.207 108.979L220.718 140.942C222.443 143.505 221.433 147.003 218.608 148.253L148.622 179.215C147.556 179.687 146.358 179.768 145.238 179.445C144.118 179.121 143.147 178.414 142.496 177.447L120 144.02L199.207 108.979Z" fill="#FCA863"/>
<path id="Vector_17" d="M218.605 148.255L206.35 153.675C208.375 152.082 208.926 149.114 207.412 146.86L185.879 114.874L199.206 108.977L220.715 140.943C222.442 143.504 221.435 147.004 218.605 148.255Z" fill="#FC9744"/>
<path id="Vector_18" d="M40.7941 108.979L19.2827 140.942C17.5582 143.505 18.5679 147.003 21.3926 148.253L91.3779 179.214C92.4441 179.686 93.6423 179.767 94.7624 179.444C95.8825 179.121 96.8531 178.413 97.504 177.446L120 144.019L40.7941 108.979Z" fill="#FCC16D"/>
</g>
</g>
<defs>
<clipPath id="clip0_721_529">
<rect width="240" height="240" fill="white"/>
</clipPath>
</defs>
</svg>
