<svg width="240" height="240" viewBox="0 0 240 240" fill="none" xmlns="http://www.w3.org/2000/svg">
<g id="Icon">
<g id="Group">
<g id="Group_2">
<path id="Vector" fill-rule="evenodd" clip-rule="evenodd" d="M45.6143 187.08L57.0438 229.734C59.8057 227.437 62.275 225.585 64.5766 224.141C67.2757 222.342 70.0169 221.1 72.9466 220.499C76.0525 219.823 79.1449 219.949 82.6422 220.749L82.6535 220.751L105.852 226.07C111.135 227.281 116.1 226.813 120.794 224.102L178.809 190.608C183.986 187.62 185.775 180.939 182.786 175.762C179.799 170.585 173.117 168.795 167.94 171.783L127.539 195.108C127.569 195.007 127.599 194.905 127.626 194.802C129.361 188.43 125.555 181.778 119.183 180.043L78.6813 169.02C73.3057 168.308 68.425 169.61 64.1205 172.907L45.6143 187.08Z" fill="#FFCC84"/>
<path id="Vector_2" fill-rule="evenodd" clip-rule="evenodd" d="M114.293 197.923C119.775 199.412 125.448 196.819 128.039 192.016C128.012 192.959 127.873 193.894 127.625 194.804C125.888 201.184 119.246 204.988 112.867 203.247C104.983 201.095 97.0883 199.019 89.1932 196.904C87.7237 196.51 86.8438 194.985 87.2376 193.516C87.6313 192.047 89.1557 191.167 90.6252 191.561C98.504 193.671 106.375 195.772 114.293 197.923Z" fill="#FFB855"/>
<path id="Vector_3" fill-rule="evenodd" clip-rule="evenodd" d="M48.5335 178.044L62.5046 230.186C62.667 230.799 62.5802 231.452 62.263 232.001C61.9459 232.55 61.4242 232.952 60.812 233.118L51.1754 235.7C49.9037 236.041 48.5846 235.279 48.2434 234.007L34.2727 181.866C33.932 180.594 34.6937 179.274 35.9654 178.934L45.6015 176.352C46.8737 176.011 48.1927 176.772 48.5335 178.044Z" fill="#64B5F6"/>
<path id="Vector_4" fill-rule="evenodd" clip-rule="evenodd" d="M76.1886 117.564C74.3408 117.565 73.2102 115.436 74.3924 113.907L91.2908 92.039C92.2006 90.862 93.973 90.862 94.8824 92.039L111.781 113.907C112.963 115.437 111.831 117.566 109.984 117.564H103.358V154.445C103.358 155.478 102.515 156.32 101.483 156.32H84.6903C83.6577 156.32 82.8153 155.478 82.8153 154.445V117.564H76.1886Z" fill="#FC685B"/>
<path id="Vector_5" fill-rule="evenodd" clip-rule="evenodd" d="M169.733 109.102C167.885 109.103 166.754 106.974 167.936 105.445L184.835 83.5767C185.745 82.3997 187.517 82.3997 188.426 83.5767L205.325 105.445C206.507 106.974 205.376 109.103 203.528 109.102H196.901V154.445C196.901 155.478 196.059 156.32 195.026 156.32H178.234C177.202 156.32 176.359 155.478 176.359 154.445V109.102H169.733Z" fill="#288BF0"/>
<g id="Group_3">
<path id="Vector_6" fill-rule="evenodd" clip-rule="evenodd" d="M122.961 87.9464C121.113 87.9474 119.982 85.8183 121.164 84.2892L138.063 62.4211C138.973 61.2441 140.745 61.2441 141.654 62.4211L158.553 84.2892C159.735 85.8188 158.604 87.9478 156.756 87.9464H150.13V154.446C150.13 155.478 149.287 156.321 148.255 156.321H131.462C130.43 156.321 129.587 155.478 129.587 154.446V87.9464H122.961ZM139.858 4.21924L146.903 20.9766L165.017 22.4977L151.256 34.3753L155.407 52.073L139.858 42.6567L124.31 52.073L128.46 34.3753L114.7 22.4977L132.814 20.9766L139.858 4.21924Z" fill="#FCB44D"/>
</g>
</g>
</g>
<rect id="Rectangle 230" x="165" y="29" width="16" height="4" rx="2" fill="#D9D9D9"/>
<rect id="Rectangle 231" x="96" y="29" width="16" height="4" rx="2" fill="#D9D9D9"/>
<rect id="Rectangle 232" x="119.008" y="1" width="16" height="4" rx="2" transform="rotate(48.7633 119.008 1)" fill="#D9D9D9"/>
<rect id="Rectangle 233" width="16" height="4" rx="2" transform="matrix(-0.659171 0.751993 0.751993 0.659171 158.547 1)" fill="#D9D9D9"/>
</g>
</svg>
