<svg width="40" height="41" viewBox="0 0 40 41" fill="none" xmlns="http://www.w3.org/2000/svg">
<rect y="0.240189" width="40" height="40" rx="20" fill="url(#paint0_linear_462_502)" fill-opacity="0.15"/>
<g clip-path="url(#clip0_462_502)">
<path d="M29.9907 12.6091C30.0098 12.4946 29.9986 12.3771 29.9583 12.2683C29.918 12.1594 29.8499 12.063 29.7609 11.9885C29.6719 11.914 29.5649 11.8641 29.4507 11.8436C29.3364 11.8231 29.2188 11.8329 29.1094 11.8718L10.4427 18.5385C10.3197 18.5824 10.2123 18.6614 10.1338 18.7658C10.0553 18.8703 10.0092 18.9954 10.0012 19.1258C9.99328 19.2562 10.0238 19.3861 10.089 19.4992C10.1542 19.6124 10.2513 19.704 10.3681 19.7625L15.7014 22.4291C15.8065 22.4817 15.9237 22.5056 16.041 22.4984C16.1583 22.4911 16.2716 22.453 16.3694 22.3878L20.7961 19.4358L18.1467 22.7505C18.0891 22.8226 18.0471 22.906 18.0233 22.9952C17.9996 23.0845 17.9946 23.1777 18.0088 23.2689C18.0229 23.3602 18.0559 23.4475 18.1056 23.5253C18.1553 23.6032 18.2206 23.6699 18.2974 23.7211L26.2974 29.0545C26.3901 29.1161 26.4966 29.1535 26.6074 29.1634C26.7182 29.1732 26.8298 29.1552 26.9318 29.1109C27.0339 29.0667 27.1232 28.9975 27.1917 28.9099C27.2603 28.8223 27.3058 28.7189 27.3241 28.6091L29.9907 12.6091Z" fill="white"/>
</g>
<defs>
<linearGradient id="paint0_linear_462_502" x1="0" y1="0.240189" x2="40" y2="0.240189" gradientUnits="userSpaceOnUse">
<stop stop-color="#0B45B3"/>
<stop offset="1" stop-color="#288BF0"/>
</linearGradient>
<clipPath id="clip0_462_502">
<rect width="20" height="20" fill="white" transform="translate(10 10.4998)"/>
</clipPath>
</defs>
</svg>
