<svg width="24" height="24" viewBox="0 0 24 24" fill="none" xmlns="http://www.w3.org/2000/svg">
<path fill-rule="evenodd" clip-rule="evenodd" d="M20.5033 3.4878C18.2472 1.23986 15.2467 0.0013125 12.0502 0C5.4635 0 0.102867 5.33483 0.10023 11.8917C0.0993254 13.9878 0.649496 16.0339 1.69528 17.8374L0 24L6.33486 22.3462C8.08036 23.2938 10.0455 23.7932 12.0453 23.7938H12.0504C18.6363 23.7938 23.9975 18.4585 24 11.9013C24.0014 8.72344 22.7595 5.73563 20.5033 3.4878ZM12.0502 21.7853H12.046C10.2639 21.7845 8.51602 21.3079 6.99083 20.4074L6.62835 20.1931L2.86913 21.1746L3.87248 17.5269L3.63623 17.153C2.64199 15.5792 2.11696 13.7601 2.11786 11.8925C2.11993 6.4425 6.57563 2.00858 12.0542 2.00858C14.7071 2.00944 17.2009 3.03893 19.0761 4.90733C20.9512 6.77573 21.9833 9.25924 21.9825 11.9005C21.9801 17.3509 17.5247 21.7853 12.0502 21.7853ZM17.4982 14.3821C17.1997 14.2333 15.7317 13.5146 15.4579 13.4153C15.1844 13.3161 14.9851 13.2668 14.7863 13.5641C14.5871 13.8615 14.015 14.5309 13.8407 14.7291C13.6664 14.9275 13.4925 14.9523 13.1938 14.8035C12.8952 14.6549 11.9331 14.3409 10.7926 13.3286C9.90503 12.5406 9.30584 11.5676 9.13157 11.2702C8.9576 10.9725 9.13006 10.8272 9.26254 10.6637C9.58576 10.2643 9.90944 9.84548 10.009 9.64729C10.1086 9.44891 10.0587 9.27536 9.98393 9.12668C9.90944 8.97799 9.31232 7.51534 9.06355 6.92018C8.821 6.34099 8.57503 6.41918 8.39164 6.41014C8.21767 6.40147 8.01853 6.39971 7.81939 6.39971C7.62036 6.39971 7.29683 6.47396 7.02309 6.77164C6.74945 7.06916 5.97821 7.78796 5.97821 9.25061C5.97821 10.7133 7.04811 12.1262 7.19736 12.3246C7.34657 12.5229 9.3029 15.5244 12.298 16.8114C13.0104 17.1178 13.5665 17.3005 14.0003 17.4375C14.7156 17.6636 15.3663 17.6317 15.8809 17.5552C16.4546 17.4698 17.6473 16.8363 17.8964 16.1422C18.1451 15.4481 18.1451 14.8532 18.0703 14.7291C17.9959 14.6052 17.7967 14.5309 17.4982 14.3821Z" fill="white"/>
</svg>
