<svg width="32" height="32" viewBox="0 0 32 32" fill="none" xmlns="http://www.w3.org/2000/svg">
<g id="Frame">
<g id="Group">
<path id="Vector" d="M21.207 8.43781H28.0292V23.0029H21.207V8.43781Z" fill="#80E0B7"/>
<path id="Vector_2" d="M12.5898 12.4016H19.412V23.0029H12.5898V12.4016Z" fill="#FFE54E"/>
<path id="Vector_3" d="M3.97266 16.3654H10.7948V23.0029H3.97266V16.3654Z" fill="#FD7A6E"/>
<path id="Vector_4" d="M1.2793 24.5136H30.7224V26.2371H1.2793V24.5136Z" fill="#77899B"/>
<g id="Group_2">
<path id="Vector_5" fill-rule="evenodd" clip-rule="evenodd" d="M4.24805 13.574L9.2838 6.86399C9.31856 6.81757 9.36367 6.7799 9.41554 6.75395C9.46741 6.72801 9.52462 6.71452 9.58261 6.71455V6.71311H18.0967L26.6229 1.51749L27.0125 2.15617L18.4175 7.39367C18.3541 7.43894 18.2781 7.46322 18.2001 7.46311H9.76817L4.84567 14.0222L4.24805 13.5739V13.574Z" fill="#77899B"/>
<path id="Vector_6" fill-rule="evenodd" clip-rule="evenodd" d="M4.54781 15.0099C5.21525 15.0099 5.75962 14.4656 5.75962 13.7981C5.75962 13.1306 5.21525 12.5862 4.54781 12.5862C3.88037 12.5862 3.33594 13.1306 3.33594 13.7981C3.33594 14.4655 3.88031 15.0099 4.54781 15.0099Z" fill="#FD7A6E"/>
<path id="Vector_7" fill-rule="evenodd" clip-rule="evenodd" d="M9.58297 8.29994C10.2504 8.29994 10.7948 7.75556 10.7948 7.08806C10.7948 6.42056 10.2505 5.87625 9.58297 5.87625C8.91547 5.87625 8.37109 6.42063 8.37109 7.08806C8.37109 7.7555 8.91547 8.29994 9.58297 8.29994Z" fill="#FFE54E"/>
<path id="Vector_8" fill-rule="evenodd" clip-rule="evenodd" d="M18.2001 8.29994C18.8675 8.29994 19.4119 7.75556 19.4119 7.08806C19.4119 6.42056 18.8675 5.87625 18.2001 5.87625C17.5327 5.87625 16.9883 6.42063 16.9883 7.08806C16.9883 7.7555 17.5327 8.29994 18.2001 8.29994Z" fill="#5C85DA"/>
<path id="Vector_9" fill-rule="evenodd" clip-rule="evenodd" d="M26.8193 3.04869C27.4867 3.04869 28.0311 2.50431 28.0311 1.83681C28.0311 1.16931 27.4867 0.625 26.8193 0.625C26.1519 0.625 25.6074 1.16938 25.6074 1.83681C25.6074 2.50425 26.1518 3.04869 26.8193 3.04869Z" fill="#80E0B7"/>
</g>
<path id="Vector_10" d="M3.97266 16.3654H6.54284V23.0029H3.97266V16.3654Z" fill="#FB695B"/>
<path id="Vector_11" d="M12.1426 12.4016H14.7128V23.0029H12.1426V12.4016Z" fill="#FAD51B"/>
<path id="Vector_12" d="M21.207 8.43781H23.7772V23.0029H21.207V8.43781Z" fill="#60DAA8"/>
<path id="Vector_13" fill-rule="evenodd" clip-rule="evenodd" d="M12.1248 29.7632L15.9463 26.4172L16.4218 26.8926L16.8973 27.3681L13.5512 31.1897C12.9296 31.8996 11.4149 30.3849 12.1248 29.7633L12.1248 29.7632Z" fill="#4677D5"/>
<path id="Vector_14" fill-rule="evenodd" clip-rule="evenodd" d="M16.423 26.8926L16.8984 27.3681L13.5523 31.1897C13.2415 31.5446 12.7075 31.3435 12.3398 30.9758L16.423 26.8926Z" fill="#5C85DA"/>
<path id="Vector_15" fill-rule="evenodd" clip-rule="evenodd" d="M15.854 28.4479L14.8668 27.4607C14.6824 27.2763 14.6824 26.9746 14.8668 26.7902L16.4443 25.2127L18.102 26.8704L16.5246 28.4479C16.3402 28.6323 16.0383 28.6323 15.854 28.4479Z" fill="#FAD51B"/>
<path id="Vector_16" fill-rule="evenodd" clip-rule="evenodd" d="M15.8549 28.4479L15.3613 27.9543L17.2741 26.0416L18.103 26.8704L16.5255 28.4479C16.3411 28.6323 16.0393 28.6323 15.8549 28.4479Z" fill="#FFE54E"/>
<path id="Vector_17" d="M20.3113 28.5134C23.3547 28.5134 25.8219 26.0463 25.8219 23.0029C25.8219 19.9595 23.3547 17.4923 20.3113 17.4923C17.2679 17.4923 14.8008 19.9595 14.8008 23.0029C14.8008 26.0463 17.2679 28.5134 20.3113 28.5134Z" fill="#4677D5"/>
<path id="Vector_18" fill-rule="evenodd" clip-rule="evenodd" d="M24.2085 19.1063C23.3197 18.2174 22.2027 17.6961 21.046 17.5416C19.8894 17.6962 18.7724 18.2175 17.8835 19.1063C15.7315 21.2583 15.7315 24.7474 17.8835 26.8994C18.7724 27.7883 19.8894 28.3096 21.046 28.4642C22.2027 28.3096 23.3197 27.7883 24.2085 26.8994C26.3605 24.7474 26.3605 21.2583 24.2085 19.1063Z" fill="#5C85DA"/>
<path id="Vector_19" d="M20.312 27.0453C22.5445 27.0453 24.3544 25.2355 24.3544 23.0029C24.3544 20.7703 22.5445 18.9604 20.312 18.9604C18.0794 18.9604 16.2695 20.7703 16.2695 23.0029C16.2695 25.2355 18.0794 27.0453 20.312 27.0453Z" fill="#DBE2EC"/>
<path id="Vector_20" fill-rule="evenodd" clip-rule="evenodd" d="M23.17 20.1444C22.5601 19.5344 21.8036 19.1604 21.0139 19.0218C20.2242 19.1604 19.4678 19.5345 18.8578 20.1444C17.2792 21.7231 17.2792 24.2827 18.8578 25.8613C19.4678 26.4713 20.2242 26.8453 21.0139 26.9839C21.8036 26.8453 22.56 26.4713 23.17 25.8613C24.7487 24.2826 24.7487 21.7231 23.17 20.1444Z" fill="#F3F5FB"/>
</g>
</g>
</svg>
