<svg width="32" height="32" viewBox="0 0 32 32" fill="none" xmlns="http://www.w3.org/2000/svg">
<g id="Frame" clip-path="url(#clip0_721_423)">
<g id="Group">
<path id="Vector" d="M18.8125 30.125V32H13.1875V30.125H18.8125Z" fill="#1C78BF"/>
<g id="Group_2">
<path id="Vector_2" d="M4.6875 12.25H0V10.375H4.6875V12.25ZM4.33063 7.46363C2.97363 6.78513 1.93775 6.26706 0.580625 5.58863C0.884063 4.98169 1.11594 4.51831 1.41937 3.91138C2.77637 4.58981 3.81225 5.10794 5.16937 5.78638C4.86594 6.39331 4.63406 6.85669 4.33063 7.46363ZM1.41937 18.7136C1.11594 18.1067 0.884063 17.6433 0.580625 17.0364C1.93775 16.3579 2.97363 15.8399 4.33063 15.1614C4.63406 15.7683 4.86594 16.2317 5.16937 16.8386C3.81225 17.5171 2.77637 18.0352 1.41937 18.7136Z" fill="#FFDA2D"/>
</g>
<path id="Vector_3" d="M31.9995 12.25H27.312V10.375H31.9995V12.25ZM27.6688 7.46363C27.3654 6.85669 27.1335 6.39331 26.8301 5.78638C28.1872 5.10794 29.2231 4.58988 30.5801 3.91138C30.8835 4.51831 31.1154 4.98169 31.4188 5.58863C30.0617 6.26706 29.0258 6.78513 27.6688 7.46363ZM30.5801 18.7136C29.2231 18.0352 28.1872 17.5171 26.8301 16.8386C27.1335 16.2317 27.3654 15.7683 27.6688 15.1614C29.0258 15.8399 30.0617 16.3579 31.4188 17.0364C31.1154 17.6433 30.8835 18.1067 30.5801 18.7136Z" fill="#FDBF00"/>
<path id="Vector_4" d="M20.6875 24.4375V28.1875H11.3125V24.4375L13.6562 22.5625H18.925L20.6875 24.4375Z" fill="#E0F4FF"/>
<path id="Vector_5" d="M16 30.125H18.8125V32H16V30.125Z" fill="#145383"/>
<path id="Vector_6" d="M20.6875 24.4375V28.1875H16V22.5625H18.925L20.6875 24.4375Z" fill="#BBDCFF"/>
<path id="Vector_7" d="M24.0812 11.3125C24.9037 12.0371 25.375 13.0422 25.375 14.125C25.375 15.9165 24.1104 17.4226 22.4124 17.8C21.9461 17.8933 21.625 18.3033 21.625 18.7749V18.8125C21.625 20.0305 20.8384 21.0623 19.75 21.4562V23.5H12.25V21.4562C11.1616 21.0623 10.375 20.0305 10.375 18.8125C10.375 18.4753 10.4311 18.175 10.5437 17.875C8.39525 17.9683 6.625 16.2517 6.625 14.125C6.625 13.0422 7.09625 12.0371 7.91875 11.3125C7.09812 10.5894 6.625 9.585 6.625 8.5C6.625 6.43775 8.31225 4.75 10.375 4.75C10.375 2.68775 12.0623 0.9375 14.125 0.9375C14.8039 0.9375 15.4216 1.13475 16 1.46238C16.5784 1.13475 17.1961 0.9375 17.875 0.9375C19.9373 0.9375 21.625 2.68725 21.625 4.75C23.6873 4.75 25.375 6.43725 25.375 8.5C25.375 9.585 24.9019 10.5894 24.0812 11.3125Z" fill="#FFDA2D"/>
<path id="Vector_8" d="M24.0812 11.3125C24.9037 12.0371 25.375 13.0422 25.375 14.125C25.375 15.9165 24.1104 17.4226 22.4124 17.8C21.9461 17.8933 21.625 18.3033 21.625 18.7749V18.8125C21.625 20.0305 20.8384 21.0623 19.75 21.4562V23.5H16V1.46238C16.5784 1.13475 17.1961 0.9375 17.875 0.9375C19.9372 0.9375 21.625 2.68725 21.625 4.75C23.6873 4.75 25.375 6.43725 25.375 8.5C25.375 9.585 24.9019 10.5894 24.0812 11.3125Z" fill="#FDBF00"/>
<path id="Vector_9" d="M26.3125 8.5C26.3125 6.23169 24.6816 4.30375 22.4875 3.8875C22.0721 1.69719 20.1471 0 17.875 0C17.2126 0 16.5948 0.13375 16 0.412375C15.4052 0.13375 14.7874 0 14.125 0C11.8562 0 9.92844 1.69406 9.5125 3.8875C7.3225 4.30294 5.6875 6.2275 5.6875 8.5C5.6875 9.48219 6.00688 10.4827 6.64375 11.3125C6.04469 12.0933 5.6875 13.0811 5.6875 14.125C5.6875 15.4206 6.19506 16.6199 7.13137 17.5C7.78325 18.1333 8.56813 18.5486 9.4375 18.7188V18.8125C9.4375 20.1768 10.1821 21.3892 11.3125 22.0561V24.4375H20.6875V22.0561C21.8179 21.3892 22.5625 20.1768 22.5625 18.8125L22.6001 18.7188C24.7539 18.2505 26.3125 16.3211 26.3125 14.125C26.3125 13.1447 25.9944 12.1441 25.3563 11.3125C25.9566 10.5302 26.3125 9.542 26.3125 8.5ZM15.0625 22.5625H13.1875V20.8C12.1048 20.4062 11.3125 19.9944 11.3125 18.8125C11.3125 18.3755 11.7224 17.3262 11.875 16.8811C11.7807 16.885 10.4412 16.9409 10.3489 16.9409C9.60081 16.9409 8.94237 16.6501 8.42506 16.1499C7.86844 15.6306 7.5625 14.9028 7.5625 14.125C7.5625 13.4082 7.84719 12.7712 8.3125 12.25H9.56888C9.98606 13.8819 11.4597 15.0625 13.1875 15.0625V13.1875C12.1562 13.1875 11.3125 12.3438 11.3125 11.3125C11.3125 10.2812 12.1562 9.4375 13.1875 9.4375V7.5625C11.4597 7.5625 9.98606 8.74312 9.56888 10.375H8.3125C7.81 9.812 7.5625 9.16625 7.5625 8.5C7.5625 6.94362 8.81862 5.6875 10.375 5.6875H11.3125V4.75C11.3125 3.19362 12.5686 1.875 14.125 1.875C14.4439 1.875 14.7627 1.95 15.0625 2.0625V22.5625ZM20.6875 11.3125C20.6875 12.3438 19.8438 13.1875 18.8125 13.1875V15.0625C20.5403 15.0625 22.0139 13.8819 22.4311 12.25H23.6875C24.1528 12.7712 24.4375 13.4082 24.4375 14.125C24.4375 15.4346 23.5019 16.5996 22.2062 16.8811C21.3437 17.0647 20.687 17.8472 20.687 18.7554C20.687 18.7681 20.6873 18.781 20.6875 18.7937V18.8125C20.6875 20.0986 19.8279 20.4309 18.8125 20.8V22.5625H16.9375V2.0625C17.2373 1.95 17.5561 1.875 17.875 1.875C19.4314 1.875 20.6875 3.19362 20.6875 4.75V5.6875H21.625C23.1814 5.6875 24.4375 6.94362 24.4375 8.5C24.4375 9.16625 24.19 9.812 23.6875 10.375H22.4311C22.0139 8.74312 20.5403 7.5625 18.8125 7.5625V9.4375C19.8438 9.4375 20.6875 10.2812 20.6875 11.3125Z" fill="#FDBF00"/>
<path id="Vector_10" d="M26.3125 8.5C26.3125 6.23169 24.6816 4.30375 22.4875 3.8875C22.0721 1.69719 20.1471 0 17.875 0C17.2126 0 16.5947 0.13375 16 0.412375V24.4375H20.6875V22.0561C21.8179 21.3892 22.5625 20.1768 22.5625 18.8125L22.6001 18.7188C24.7539 18.2505 26.3125 16.3211 26.3125 14.125C26.3125 13.1447 25.9944 12.1441 25.3563 11.3125C25.9566 10.5302 26.3125 9.542 26.3125 8.5ZM20.6875 11.3125C20.6875 12.3438 19.8438 13.1875 18.8125 13.1875V15.0625C20.5403 15.0625 22.0139 13.8819 22.4311 12.25H23.6875C24.1528 12.7712 24.4375 13.4082 24.4375 14.125C24.4375 15.4346 23.5019 16.5996 22.2062 16.8811C21.3437 17.0647 20.687 17.8472 20.687 18.7554C20.687 18.7681 20.6873 18.781 20.6875 18.7937V18.8125C20.6875 20.0986 19.8279 20.4309 18.8125 20.8V22.5625H16.9375V2.0625C17.2373 1.95 17.5561 1.875 17.875 1.875C19.4314 1.875 20.6875 3.19362 20.6875 4.75V5.6875H21.625C23.1814 5.6875 24.4375 6.94362 24.4375 8.5C24.4375 9.16625 24.19 9.812 23.6875 10.375H22.4311C22.0139 8.74312 20.5403 7.5625 18.8125 7.5625V9.4375C19.8438 9.4375 20.6875 10.2812 20.6875 11.3125Z" fill="#FF9100"/>
</g>
</g>
<defs>
<clipPath id="clip0_721_423">
<rect width="32" height="32" fill="white"/>
</clipPath>
</defs>
</svg>
