<svg width="40" height="41" viewBox="0 0 40 41" fill="none" xmlns="http://www.w3.org/2000/svg">
<rect y="0.240189" width="40" height="40" rx="20" fill="url(#paint0_linear_462_485)" fill-opacity="0.15"/>
<path d="M27.6671 27.9069V22.0469C27.6671 19.1669 27.0471 16.9669 23.6871 16.9669C22.0671 16.9669 20.9871 17.8469 20.5471 18.6869H20.5071V17.2269H17.3271V27.9069H20.6471V22.6069C20.6471 21.2069 20.9071 19.8669 22.6271 19.8669C24.3271 19.8669 24.3471 21.4469 24.3471 22.6869V27.8869H27.6671V27.9069Z" fill="white"/>
<path d="M11.9268 17.2269H15.2468V27.9069H11.9268V17.2269Z" fill="white"/>
<path d="M13.587 11.9069C12.527 11.9069 11.667 12.7669 11.667 13.8269C11.667 14.8869 12.527 15.7669 13.587 15.7669C14.647 15.7669 15.507 14.8869 15.507 13.8269C15.507 12.7669 14.647 11.9069 13.587 11.9069Z" fill="white"/>
<defs>
<linearGradient id="paint0_linear_462_485" x1="0" y1="0.240189" x2="40" y2="0.240189" gradientUnits="userSpaceOnUse">
<stop stop-color="#0B45B3"/>
<stop offset="1" stop-color="#288BF0"/>
</linearGradient>
</defs>
</svg>
