<svg width="40" height="41" viewBox="0 0 40 41" fill="none" xmlns="http://www.w3.org/2000/svg">
<rect y="0.240189" width="40" height="40" rx="20" fill="url(#paint0_linear_462_505)" fill-opacity="0.15"/>
<g clip-path="url(#clip0_462_505)">
<path d="M26.1512 13.262C25.2801 12.3829 24.2428 11.6859 23.0997 11.2117C21.9565 10.7374 20.7305 10.4955 19.4929 10.4999C14.3071 10.4999 10.0808 14.725 10.076 19.912C10.076 21.5733 10.5106 23.1895 11.3312 24.6204L10 29.4999L14.9922 28.1912C16.3733 28.9428 17.9205 29.3368 19.4929 29.3372H19.4976C24.6846 29.3372 28.9097 25.112 28.9145 19.9203C28.9157 18.683 28.672 17.4576 28.1976 16.3149C27.7231 15.1722 27.0284 14.1346 26.1512 13.262ZM19.4929 27.7435C18.0904 27.744 16.7138 27.3666 15.5076 26.651L15.2226 26.48L12.261 27.2567L13.0519 24.3675L12.8666 24.0694C12.0826 22.8229 11.668 21.3798 11.6708 19.9072C11.6708 15.6014 15.1823 12.0887 19.4976 12.0887C20.5257 12.0869 21.544 12.2886 22.4937 12.6821C23.4435 13.0757 24.3059 13.6533 25.0314 14.3818C25.7594 15.1074 26.3365 15.97 26.7294 16.9198C27.1224 17.8695 27.3234 18.8877 27.3209 19.9155C27.3161 24.2369 23.8047 27.7435 19.4929 27.7435ZM23.7857 21.8844C23.5518 21.7669 22.3963 21.198 22.179 21.1173C21.9629 21.0401 21.8049 20.9997 21.6506 21.2349C21.4926 21.4688 21.0414 22.002 20.906 22.1552C20.7706 22.3131 20.6305 22.3309 20.3954 22.2145C20.1614 22.0958 19.4026 21.8488 18.5049 21.0449C17.8043 20.4214 17.3352 19.6495 17.1951 19.4156C17.0597 19.1805 17.182 19.0546 17.2996 18.937C17.4029 18.8325 17.5335 18.6615 17.6511 18.5262C17.7698 18.3908 17.809 18.291 17.8862 18.1343C17.9634 17.9752 17.9266 17.8398 17.8684 17.7222C17.809 17.6047 17.3399 16.4445 17.1416 15.9766C16.9516 15.5147 16.7581 15.5788 16.6132 15.5729C16.4778 15.5645 16.3199 15.5645 16.1619 15.5645C16.0427 15.5675 15.9253 15.5951 15.8172 15.6456C15.7091 15.696 15.6126 15.7683 15.5337 15.8579C15.3176 16.093 14.7132 16.6618 14.7132 17.822C14.7132 18.9822 15.5563 20.0972 15.6751 20.2552C15.7914 20.4131 17.3304 22.7869 19.6924 23.8082C20.2505 24.0516 20.6899 24.1953 21.0331 24.3045C21.5971 24.485 22.1066 24.4577 22.5127 24.3995C22.9639 24.3307 23.9032 23.8295 24.1016 23.2797C24.2963 22.7287 24.2963 22.2585 24.2369 22.1599C24.1788 22.0602 24.0208 22.002 23.7857 21.8844Z" fill="white"/>
</g>
<defs>
<linearGradient id="paint0_linear_462_505" x1="0" y1="0.240189" x2="40" y2="0.240189" gradientUnits="userSpaceOnUse">
<stop stop-color="#0B45B3"/>
<stop offset="1" stop-color="#288BF0"/>
</linearGradient>
<clipPath id="clip0_462_505">
<rect width="19" height="19" fill="white" transform="translate(10 10.4998)"/>
</clipPath>
</defs>
</svg>
