<svg width="64" height="64" viewBox="0 0 64 64" fill="none" xmlns="http://www.w3.org/2000/svg">
<rect width="64" height="64" rx="32" fill="#25D366"/>
<path fill-rule="evenodd" clip-rule="evenodd" d="M42.8398 21.6931C40.0331 18.8832 36.3005 17.335 32.324 17.3333C24.13 17.3333 17.4613 24.0019 17.458 32.198C17.4569 34.8181 18.1413 37.3757 19.4423 39.6301L17.3333 47.3333L25.214 45.2661C27.3854 46.4506 29.8301 47.0748 32.3179 47.0755H32.3242C40.5172 47.0755 47.1867 40.4065 47.1898 32.2099C47.1914 28.2376 45.6466 24.5029 42.8398 21.6931ZM32.324 44.5649H32.3188C30.1018 44.564 27.9274 43.9682 26.0301 42.8426L25.5791 42.5747L20.9026 43.8015L22.1508 39.242L21.8569 38.7746C20.62 36.8073 19.9669 34.5335 19.968 32.1989C19.9706 25.3865 25.5135 19.8441 32.3289 19.8441C35.6292 19.8451 38.7316 21.132 41.0643 23.4675C43.397 25.803 44.681 28.9074 44.6799 32.209C44.677 39.0219 39.1344 44.5649 32.324 44.5649ZM39.1014 35.3109C38.7301 35.1249 36.9038 34.2266 36.5632 34.1025C36.223 33.9785 35.9751 33.9168 35.7277 34.2885C35.48 34.6602 34.7682 35.497 34.5514 35.7447C34.3346 35.9927 34.1182 36.0238 33.7467 35.8378C33.3752 35.6519 32.1784 35.2595 30.7595 33.9941C29.6554 33.0091 28.91 31.7928 28.6932 31.4211C28.4767 31.049 28.6913 30.8674 28.8561 30.663C29.2582 30.1637 29.6609 29.6402 29.7846 29.3924C29.9086 29.1445 29.8465 28.9275 29.7535 28.7417C29.6609 28.5558 28.918 26.7275 28.6086 25.9836C28.3068 25.2596 28.0008 25.3573 27.7727 25.346C27.5563 25.3352 27.3085 25.333 27.0608 25.333C26.8132 25.333 26.4107 25.4258 26.0702 25.7979C25.7298 26.1698 24.7703 27.0683 24.7703 28.8966C24.7703 30.7249 26.1013 32.4911 26.287 32.739C26.4726 32.987 28.9063 36.7388 32.6323 38.3476C33.5185 38.7306 34.2103 38.959 34.7499 39.1302C35.6398 39.4129 36.4493 39.373 37.0895 39.2773C37.8032 39.1706 39.2869 38.3787 39.5967 37.5111C39.9062 36.6434 39.9062 35.8998 39.8131 35.7447C39.7205 35.5898 39.4728 35.497 39.1014 35.3109Z" fill="white"/>
</svg>
